<svg width="28" height="16" viewBox="0 0 28 16" fill="none" xmlns="http://www.w3.org/2000/svg">
<path d="M27.0001 14.4701L26.9101 14.3001C26.1954 13.1779 25.3193 12.1671 24.3101 11.3001C23.7301 10.7468 23.3634 10.3735 23.2101 10.1801C22.886 9.87697 22.8005 9.39649 23.0001 9.00013C23.3431 8.3656 23.752 7.76898 24.2201 7.22013L25.1001 6.06013C26.6667 3.97347 27.3334 2.64013 27.1001 2.06013L27.0001 1.94013C26.8909 1.82951 26.7519 1.75306 26.6001 1.72013C26.3131 1.66056 26.017 1.66056 25.7301 1.72013H21.8101C21.7217 1.69588 21.6284 1.69588 21.5401 1.72013H21.2401C21.1824 1.75784 21.1316 1.8052 21.0901 1.86013C21.0316 1.93267 20.9844 2.01357 20.9501 2.10013C20.542 3.15583 20.0539 4.17881 19.4901 5.16013C19.1567 5.72013 18.8467 6.2068 18.5601 6.62013C18.3488 6.94249 18.1114 7.24686 17.8501 7.53013C17.6881 7.69892 17.5143 7.85598 17.3301 8.00013C17.1767 8.12013 17.0601 8.17013 16.9801 8.15013L16.7501 8.10013C16.6203 8.01835 16.5136 7.90475 16.4401 7.77013C16.3541 7.60501 16.2998 7.42524 16.2801 7.24013V2.60013C16.3005 2.39397 16.3005 2.18629 16.2801 1.98013C16.2495 1.82881 16.2026 1.68127 16.1401 1.54013C16.0822 1.40436 15.9846 1.2893 15.8601 1.21013C15.7172 1.12624 15.5619 1.06549 15.4001 1.03013C14.7927 0.957974 14.1795 0.947922 13.5701 1.00013C12.4756 0.909364 11.3739 1.02124 10.3201 1.33013C10.1232 1.43404 9.94701 1.57298 9.80006 1.74013C9.63339 1.94013 9.61006 2.05013 9.73006 2.07013C10.1806 2.10185 10.5991 2.3147 10.8901 2.66013L10.9701 2.82013C11.0598 3.02124 11.1237 3.23293 11.1601 3.45013C11.2266 3.77974 11.2667 4.11414 11.2801 4.45013C11.3256 5.01588 11.3256 5.58438 11.2801 6.15013C11.2334 6.62347 11.1901 6.99013 11.1501 7.25013C11.1227 7.47132 11.062 7.6871 10.9701 7.89013C10.9231 7.99341 10.8697 8.09361 10.8101 8.19013L10.7401 8.26013C10.6223 8.30669 10.4967 8.33044 10.3701 8.33013C10.2013 8.31352 10.0413 8.24742 9.91006 8.14013C9.70371 7.98928 9.51576 7.81476 9.35006 7.62013C9.10513 7.3286 8.8844 7.01757 8.69006 6.69013C8.44339 6.29013 8.19006 5.8168 7.93006 5.27013L7.71006 4.88013C7.57672 4.6268 7.39006 4.2568 7.15006 3.77013C6.91006 3.28347 6.70339 2.8068 6.53006 2.34013C6.46866 2.16263 6.35327 2.00877 6.20006 1.90013H6.13006C6.06496 1.83631 5.99083 1.7824 5.91006 1.74013C5.81042 1.69861 5.70644 1.66842 5.60006 1.65013L1.87006 1.68013C1.58816 1.65389 1.30834 1.74837 1.10006 1.94013L1.00006 2.00013C0.981427 2.07228 0.981427 2.14798 1.00006 2.22013C1.00473 2.34722 1.03181 2.47247 1.08006 2.59013C1.62672 3.88347 2.22006 5.12347 2.86006 6.31013C3.50006 7.4968 4.05339 8.45347 4.52006 9.18013C4.99339 9.9068 5.48672 10.5935 6.00006 11.2401C6.51339 11.8868 6.84672 12.3001 7.00006 12.4801L7.37006 12.8901L7.71006 13.2201C8.02238 13.506 8.35675 13.7668 8.71006 14.0001C9.16113 14.3237 9.6284 14.6241 10.1101 14.9001C10.6737 15.2152 11.2752 15.4572 11.9001 15.6201C12.5503 15.8021 13.2259 15.8764 13.9001 15.8401H15.4701C15.739 15.8333 15.9958 15.7263 16.1901 15.5401L16.2401 15.4701C16.2857 15.3923 16.3194 15.308 16.3401 15.2201C16.3567 15.0974 16.3567 14.9729 16.3401 14.8501C16.3286 14.4978 16.3589 14.1454 16.4301 13.8001C16.4743 13.5542 16.5517 13.3153 16.6601 13.0901C16.7372 12.9437 16.8349 12.809 16.9501 12.6901C17.0178 12.6139 17.0951 12.5467 17.1801 12.4901H17.2901C17.5656 12.4296 17.8534 12.5081 18.0601 12.7001C18.3691 12.9272 18.648 13.1927 18.8901 13.4901C19.1501 13.8035 19.4601 14.1535 19.8201 14.5401C20.1224 14.8639 20.4576 15.1555 20.8201 15.4101L21.0901 15.5701C21.3142 15.6974 21.5525 15.7981 21.8001 15.8701C22.0434 15.9573 22.3049 15.9814 22.5601 15.9401L26.0401 15.8901C26.317 15.9047 26.5929 15.846 26.8401 15.7201C26.9965 15.6447 27.1181 15.5124 27.1801 15.3501C27.2137 15.1986 27.2137 15.0416 27.1801 14.8901C27.16 14.7668 27.1264 14.6461 27.0801 14.5301L27.0001 14.4701Z" fill="white"/>
</svg>
